<svg xmlns="http://www.w3.org/2000/svg" viewBox="0 0 128 128">
  <path fill="#F05340" d="M64 0C28.7 0 0 28.7 0 64s28.7 64 64 64 64-28.7 64-64S99.3 0 64 0zM45.4 95.9L32 88.1l-7.8-3.9v-7.7l23.4 11.7v7.7zm0-15.5L25.8 69.8l-1.6-.8v-7.7l21.2 10.6v7.7zm0-15.4L28.6 54.4l-4.7-2.3v-7.7l21.5 10.7v7.7zm34.3 21.8l-21.2-10.6v-7.7l21.2 10.6v7.7zm0-15.5L58.5 60.7v-7.7l21.2 10.6v7.7zm0-15.4L61.3 45.3v-7.7l18.4 9.2v7.7zm15.5 31L73.9 76.2v-7.7l21.2 10.6v7.7zm0-15.5L76.7 61.1v-7.7l18.4 9.2v7.7zm0-15.4L79.5 45.9v-7.7l15.6 7.8v7.7z"/>
</svg>